<?xml version="1.0" encoding="utf-8"?>
<!-- Generator: Adobe Illustrator 24.3.0, SVG Export Plug-In . SVG Version: 6.00 Build 0)  -->
<svg version="1.1" id="Calque_1" xmlns="http://www.w3.org/2000/svg" xmlns:xlink="http://www.w3.org/1999/xlink" x="0px" y="0px"
	 viewBox="0 0 1600 500" style="enable-background:new 0 0 1600 500;" xml:space="preserve">
<style type="text/css">
	.st0{fill:#585E5C;}
	.st1{fill:url(#SVGID_1_);}
	.st2{fill:url(#SVGID_2_);}
	.st3{fill:url(#SVGID_3_);}
	.st4{fill:url(#SVGID_4_);}
	.st5{fill:none;stroke:#000000;stroke-miterlimit:10;}
</style>
<path class="st0" d="M248.6,39.8h45c1.3,0,2.2,1.2,1.9,2.4L288,72.5c-0.2,0.9-1,1.5-1.9,1.5l-32.7-0.1c-12.2,0-22.8,8.6-25.1,20.5
	l-2.8,14.2c-0.2,1.2,0.7,2.3,1.9,2.3h45.3c1.3,0,2.2,1.2,1.9,2.5l-7.8,29.6c-0.2,0.9-1,1.5-1.9,1.5h-45.7c-0.9,0-1.7,0.7-1.9,1.6
	l-13.8,70.3c-0.2,0.9-1,1.6-1.9,1.6h-51.8c-1.2,0-2.2-1.1-1.9-2.3l24.1-122.5C177.8,62.1,217,39.8,248.6,39.8L248.6,39.8z"/>
<path class="st0" d="M387.6,93.1h52c0.7,0,1.3-0.6,1.3-1.3V78.2c0-11.5-5.5-22.5-15.2-28.7c-8.2-5.3-30-11.9-48.8-11.9
	c-35.1,0-52.3,11.7-62,22.8c-9.6,11.1-16.9,41.5,6.3,59.8c17.6,14,33.7,28,40.4,33.9c3.4,3,6.3,6.6,8.3,10.8
	c2.6,5.6,4.6,13.7-2.1,18.6c-8.1,5.8-15.6,3.7-20.4,1c-2.5-1.5-4-4.3-4-7.2l0-12.2c0-0.7-0.6-1.3-1.3-1.3h-54.9
	c-0.7,0-1.3,0.6-1.3,1.3v14c0,7.7,2,15.4,6.3,21.8c3.4,5.1,8.5,10.1,16.4,13.5c20.9,8.8,57.2,5.9,57.2,5.9s42.2-3.6,56.7-29.4
	c2.8-4.9,4.5-9.7,5.4-14.1c3.1-14.3-2.2-29.1-13.2-38.8L365,93.7c-2.7-2.4-4.3-5.8-4.5-9.4c-0.2-3-0.5-6,2.3-9.7
	c6.3-8.3,23.3-5.9,23.4,1.5c0.1,5.6,0.1,12.9,0.1,15.8C386.4,92.5,386.9,93.1,387.6,93.1z"/>
<path class="st0" d="M598.3,45.2c0,0-11.3-8.6-60-6.6c-48.6,2.1-60.5,40.8-60.5,40.8l-24,122.2c-0.1,0.4,0.3,0.8,0.7,0.8l54.7-4.1
	c0.3,0,0.5-0.2,0.6-0.5l9.1-39h18.1c0,0,35.1,3.9,58.2-17.6c23.1-21.6,23.4-41.3,25-62.8C621.7,56.8,598.3,45.2,598.3,45.2z
	 M559.3,108.1c0,0-3,19.2-33.4,18.7c-0.7,0-1.2-0.6-1-1.3l9.5-46.3c0,0,7.4-8.4,15.8-7.9c8.4,0.5,12.6,3.2,13.4,8.2
	C564.3,84.4,559.3,108.1,559.3,108.1z"/>
<linearGradient id="SVGID_1_" gradientUnits="userSpaceOnUse" x1="139.2413" y1="286.6653" x2="193.5724" y2="337.5667">
	<stop  offset="0" style="stop-color:#1F3A83"/>
	<stop  offset="1" style="stop-color:#D60021"/>
</linearGradient>
<path class="st1" d="M130.3,271.5H172c0,0-19.2,14.7-11.1,28.7s27.7,18.6,27.7,18.6L163.9,337c0,0-45.6-12.1-49.2-32.8
	S130.3,271.5,130.3,271.5z"/>
<linearGradient id="SVGID_2_" gradientUnits="userSpaceOnUse" x1="71.6739" y1="291.097" x2="140.0869" y2="369.4838">
	<stop  offset="0" style="stop-color:#1F3A83"/>
	<stop  offset="1" style="stop-color:#D60021"/>
</linearGradient>
<path class="st2" d="M61.2,271.5h42.4c0,0-28.2,22.5-16.1,41.1s61.8,34.2,61.8,34.2L131,363.6c0,0-78-19.3-84.6-50
	C40.4,285.5,61.2,271.5,61.2,271.5z"/>
<linearGradient id="SVGID_3_" gradientUnits="userSpaceOnUse" x1="240.406" y1="316.7857" x2="542.7808" y2="316.7857">
	<stop  offset="0" style="stop-color:#1F3A83"/>
	<stop  offset="1" style="stop-color:#D60021"/>
</linearGradient>
<path class="st3" d="M205.3,363.6H256c0,0,85.7-77.6,293-68.8l27-23.4C576,271.5,358.5,250.5,205.3,363.6z"/>
<linearGradient id="SVGID_4_" gradientUnits="userSpaceOnUse" x1="159.6919" y1="290.0857" x2="614.2269" y2="290.0857">
	<stop  offset="0" style="stop-color:#1F3A83"/>
	<stop  offset="9.590185e-02" style="stop-color:#2E3980"/>
	<stop  offset="0.2533" style="stop-color:#4B3877"/>
	<stop  offset="0.4526" style="stop-color:#6F3469"/>
	<stop  offset="0.6861" style="stop-color:#992A54"/>
	<stop  offset="0.9456" style="stop-color:#CB002E"/>
	<stop  offset="1" style="stop-color:#D60021"/>
</linearGradient>
<path class="st4" d="M172,363.6h-41c0,0,161.9-163.7,538.4-145.7l-26.2,24.6C643.2,242.5,366.2,213.1,172,363.6z"/>
<path class="st0" d="M437.8,428.3H428v-59.5c0-9.8,8-17.9,17.9-17.9h11.7v9.8h-11.7c-4.5,0-8.1,3.6-8.1,8.1V428.3z"/>
<rect x="432.9" y="385.3" class="st0" width="22.3" height="9.8"/>
<path class="st0" d="M495.7,428.3h-9.8v-61.6c0-8.7,7.1-15.8,15.8-15.8h4.1c9.5,0,17.2,7.7,17.2,17.2v15c0,4.3-1.7,8.4-4.8,11.5
	c-3.1,3-7.1,4.7-11.4,4.7c0,0,0,0-0.1,0l-11,0V428.3z M495.7,389.4l11,0c0,0,0,0,0,0c1.7,0,3.3-0.7,4.5-1.9c1.2-1.2,1.9-2.8,1.9-4.5
	v-15c0-4.1-3.3-7.4-7.4-7.4h-4.1c-3.3,0-6,2.7-6,6V389.4z"/>
<polygon class="st0" points="515.3,428.4 501.6,396.3 510.6,392.5 525.1,426.4 "/>
<path class="st0" d="M1342.5,428.3h-9.8v-61.6c0-8.7,7.1-15.8,15.8-15.8h4.1c9.5,0,17.2,7.7,17.2,17.2v15c0,4.3-1.7,8.4-4.8,11.5
	c-3.1,3-7.1,4.7-11.4,4.7c0,0,0,0-0.1,0l-11,0V428.3z M1342.5,389.4l11,0c0,0,0,0,0,0c1.7,0,3.3-0.7,4.5-1.9
	c1.2-1.2,1.9-2.8,1.9-4.5v-15c0-4.1-3.3-7.4-7.4-7.4h-4.1c-3.3,0-6,2.7-6,6V389.4z"/>
<polygon class="st0" points="1362.1,428.4 1348.4,396.3 1357.4,392.5 1372.7,428.4 "/>
<path class="st0" d="M592,428.3h-9.8v-58.7c0-4.9-4-8.9-8.9-8.9H572c-4.3,0-7.7,3.5-7.7,7.7v59.9h-9.8v-59.9
	c0-9.7,7.9-17.5,17.5-17.5h1.4c10.3,0,18.7,8.4,18.7,18.7V428.3z"/>
<rect x="559.3" y="393.7" class="st0" width="27.8" height="9.8"/>
<path class="st0" d="M1013.9,428.3h-9.8v-58.6c0-5-4-9-9-9c-5,0-9,4-9,9v58.6h-9.8v-58.6c0-10.4,8.4-18.8,18.8-18.8
	c10.4,0,18.8,8.4,18.8,18.8V428.3z"/>
<rect x="981.2" y="393.7" class="st0" width="27.8" height="9.8"/>
<path class="st0" d="M661.6,428.3h-9.8v-58.2c0-5.2-4.2-9.4-9.4-9.4s-9.4,4.2-9.4,9.4v58.2h-9.8v-58.2c0-10.6,8.6-19.2,19.2-19.2
	s19.2,8.6,19.2,19.2V428.3z"/>
<path class="st0" d="M711.3,431.1c-10.4,0-18.9-8.5-18.9-18.9v-42.4c0-10.4,8.5-18.9,18.9-18.9c10.4,0,18.9,8.5,18.9,18.9v1.9h-9.8
	v-1.9c0-5-4.1-9.1-9.1-9.1c-5,0-9.1,4.1-9.1,9.1v42.4c0,5,4.1,9.1,9.1,9.1c5,0,9.1-4.1,9.1-9.1V409h9.8v3.2
	C730.2,422.6,721.7,431.1,711.3,431.1z"/>
<path class="st0" d="M787.8,431.1h-13c-9.9,0-18-8.1-18-18v-44.1c0-9.9,8.1-18,18-18h13v9.8h-13c-4.5,0-8.2,3.7-8.2,8.2v44.1
	c0,4.5,3.7,8.2,8.2,8.2h13V431.1z"/>
<rect x="761.6" y="385" class="st0" width="24.1" height="9.8"/>
<path class="st0" d="M855.3,409.1"/>
<path class="st5" d="M860.1,421.8"/>
<path class="st0" d="M868.9,429.3c-10.2,0-18.5-8.3-18.5-18.5v-1.8h9.8v1.8c0,4.8,3.9,8.7,8.7,8.7c4.8,0,8.7-3.9,8.7-8.7v-2.1
	c0-2.7-1-5.3-2.8-7.3l-20-21.8c-2.6-2.8-4.1-6.6-4.1-10.4c0-10.1,8.2-18.3,18.3-18.3c10.1,0,18.4,8.2,18.4,18.3v2.6h-9.8v-2.6
	c0-4.7-3.8-8.6-8.6-8.6c-4.7,0-8.6,3.8-8.6,8.6c0,1.4,0.5,2.8,1.5,3.8l20,21.8c3.5,3.8,5.4,8.7,5.4,13.9v2.1
	C887.4,421,879.1,429.3,868.9,429.3z"/>
<path class="st0" d="M1554.2,429.3c-10.2,0-18.5-8.3-18.5-18.5v-1.8h9.8v1.8c0,4.8,3.9,8.7,8.7,8.7c4.8,0,8.7-3.9,8.7-8.7v-2.1
	c0-2.7-1-5.3-2.8-7.3l-20-21.8c-2.6-2.8-4.1-6.6-4.1-10.4c0-10.1,8.2-18.3,18.3-18.3c10.1,0,18.4,8.2,18.4,18.3v2.6h-9.8v-2.6
	c0-4.7-3.8-8.6-8.6-8.6c-4.7,0-8.6,3.8-8.6,8.6c0,1.4,0.5,2.8,1.5,3.8l20,21.8c3.5,3.8,5.4,8.7,5.4,13.9v2.1
	C1572.7,421,1564.4,429.3,1554.2,429.3z"/>
<rect x="912.4" y="350.9" class="st0" width="37" height="9.8"/>
<rect x="926.1" y="355.8" class="st0" width="9.8" height="72"/>
<path class="st0" d="M1063.6,430.8c-4.1,0-8-1.6-10.9-4.5l-4.2-4.2c-2.9-2.9-4.5-6.9-4.5-10.9v-42.9c0-4.6,1.9-9.1,5.1-12.4
	c3.3-3.3,7.8-5.1,12.4-5.1h2.7c4.7,0,9.1,1.8,12.4,5.1l0.9,0.9c3.3,3.3,5.1,7.7,5.1,12.4l-9.8,0.2v-0.2c0-2.1-0.8-4-2.3-5.5
	l-0.9-0.9c-1.5-1.5-3.4-2.3-5.5-2.3h-2.7c-2,0-4,0.8-5.5,2.3c-1.4,1.4-2.3,3.4-2.3,5.5v42.9c0,1.5,0.6,3,1.7,4l4.2,4.2
	c2.1,2.1,5.9,2.1,8,0l3.2-3.2c1.1-1.1,1.7-2.5,1.7-4v-15.2h-7.5v-9.8h17.3v25c0,4.1-1.6,8-4.5,10.9l-3.2,3.2
	C1071.7,429.2,1067.7,430.8,1063.6,430.8z"/>
<path class="st0" d="M1142.6,430.8h-10.9c-11.7,0-21.3-9.5-21.3-21.3V372c0-11.7,9.5-21.3,21.3-21.3h10.9v9.8h-10.9
	c-6.3,0-11.5,5.1-11.5,11.5v37.6c0,6.3,5.1,11.5,11.5,11.5h10.9V430.8z"/>
<rect x="1115.4" y="385.9" class="st0" width="22.7" height="9.8"/>
<path class="st0" d="M1217.6,428.4h-9.8l0-59c0-10.3,8.4-18.7,18.7-18.7c10.3,0,18.7,8.4,18.7,18.7v13c0,10.2-8.3,18.6-18.6,18.7
	l-9.1,0.1V428.4z M1226.5,360.5c-4.9,0-8.9,4-8.9,8.9v22l9-0.1c4.9,0,8.9-4,8.9-8.9v-13C1235.5,364.5,1231.5,360.5,1226.5,360.5z"/>
<path class="st0" d="M1438,428.3h-9.8v-59.6c0-4.4-3.6-8-8-8h-0.6c-4.4,0-8,3.6-8,8v59.6h-9.8v-59.6c0-9.8,8-17.8,17.8-17.8h0.6
	c9.8,0,17.8,8,17.8,17.8V428.3z"/>
<path class="st0" d="M1464.5,428.3h-9.8v-59.6c0-4.4-3.6-8-8-8h-0.6c-4.4,0-8,3.6-8,8v59.6h-9.8v-59.6c0-9.8,8-17.8,17.8-17.8h0.6
	c9.8,0,17.8,8,17.8,17.8V428.3z"/>
<rect x="1496.2" y="355.6" class="st0" width="9.8" height="72.7"/>
<path class="st0" d="M1305,430.5h-10.9c-11.7,0-21.3-9.5-21.3-21.3v-37.6c0-11.7,9.5-21.3,21.3-21.3h10.9v9.8h-10.9
	c-6.3,0-11.5,5.1-11.5,11.5v37.6c0,6.3,5.1,11.5,11.5,11.5h10.9V430.5z"/>
<rect x="1277.8" y="385.6" class="st0" width="22.7" height="9.8"/>
</svg>
